<svg id="Capa_1" data-name="Capa 1" xmlns="http://www.w3.org/2000/svg" xmlns:xlink="http://www.w3.org/1999/xlink" viewBox="0 0 239.11 215.3"><defs><style>.cls-1{fill:none;}.cls-2{clip-path:url(#clip-path);}.cls-3{fill:#1aa099;stroke:#fff;stroke-miterlimit:10;stroke-width:1.85px;}.cls-4{fill:#bb4191;}.cls-5{fill:#fff;}.cls-6{fill:#1d9f98;}</style><clipPath id="clip-path" transform="translate(-13.6 -38.35)"><rect class="cls-1" x="14.53" y="19.68" width="237.27" height="237.58"/></clipPath></defs><g class="cls-2"><path class="cls-3" d="M133.16,252.73c65.52,0,118.63-47.79,118.63-106.73S198.68,39.28,133.16,39.28,14.53,87.06,14.53,146,67.6,252.73,133.16,252.73" transform="translate(-13.6 -38.35)"/><path class="cls-4" d="M163,189.37q-18.88,17.81-46.48,17.8t-46.47-17.8q-18.88-17.82-18.88-44.3t18.88-44.3Q88.92,83,116.52,83T163,100.81q18.87,17.79,18.87,44.3T163,189.41m-9.4-44.26a38.65,38.65,0,0,0-10.68-27.44,34.69,34.69,0,0,0-26.32-11.35,34.63,34.63,0,0,0-26.26,11.35,38.55,38.55,0,0,0-10.68,27.44,38.26,38.26,0,0,0,10.68,27.36,34.78,34.78,0,0,0,26.26,11.26,34.82,34.82,0,0,0,26.27-11.26,38.33,38.33,0,0,0,10.73-27.36" transform="translate(-13.6 -38.35)"/><path class="cls-5" d="M211,86.33v24.33H151.92v25.2h53.13v23.28H152.86v25.43h60v23.29H150.6a24.85,24.85,0,0,1-25.14-24.56V121.1c0-19.21,15.09-34.77,33.7-34.77Z" transform="translate(-13.6 -38.35)"/><path class="cls-4" d="M104.94,85.28a52.4,52.4,0,0,0-13.35,2C86.66,88.56,81.76,90,77,91.69a118.09,118.09,0,0,0-12.35,5.45,44.61,44.61,0,0,0-7.46,4.74,23.09,23.09,0,0,0-6.42,7A10.29,10.29,0,0,0,51.1,120a4.08,4.08,0,0,1,.61,3.13,90.52,90.52,0,0,0-1.33,19.17,9.63,9.63,0,0,0,1.94,5.33,3.11,3.11,0,0,1,.59,2.53,53.27,53.27,0,0,1-7,13.26A33,33,0,0,0,43.21,167c-.87,1.59-.39,2.58,1.13,3.77a12.41,12.41,0,0,0,7.81,2.51c1.92,0,2,.07,1.67,1.7a33.51,33.51,0,0,1-1,3.82,1.1,1.1,0,0,0,.48,1.48l.07,0c1.25.68,2.44,1.43,3.74,2,.66.3.83.53.63,1.15a18.35,18.35,0,0,0-.74,3.2c-.12.74.27,1.32,1.18,1.61a3.24,3.24,0,0,1,2.62,3.55,39.27,39.27,0,0,0,.26,6.32c.28,2.4,2.14,3.88,5.29,3.93s6-.75,9-1.41c4.13-.91,8.29-1.76,12.5-2.34,2.2-.31,5,3.53,7.25,3.76" transform="translate(-13.6 -38.35)"/><path class="cls-6" d="M153.4,144.53a39.69,39.69,0,1,1-39.69-39.69,39.69,39.69,0,0,1,39.69,39.69h0" transform="translate(-13.6 -38.35)"/></g></svg>