<svg id="Capa_1" data-name="Capa 1" xmlns="http://www.w3.org/2000/svg" xmlns:xlink="http://www.w3.org/1999/xlink" viewBox="0 0 13314.34 2663.83"><defs><style>.cls-1,.cls-5{fill:none;}.cls-2{isolation:isolate;font-size:12px;fill:#1d1d1b;font-family:Montserrat-Regular, Montserrat;}.cls-3{clip-path:url(#clip-path);}.cls-4{fill:#1fa199;}.cls-5{stroke:#fff;stroke-miterlimit:10;stroke-width:298.87px;}.cls-6{fill:#fff;}</style><clipPath id="clip-path" transform="translate(-1657.34 -2338.6)"><rect class="cls-1" width="16527.12" height="6697.37"/></clipPath></defs><text class="cls-2" transform="translate(4271.5 732.4)">.</text><g class="cls-3"><path class="cls-4" d="M14971.68,4112.57c0,491.41-412.32,889.86-920.66,889.86H2578c-508.46,0-920.65-398.45-920.65-889.86V3228.46c0-491.47,412.31-889.86,920.65-889.86H14051c508.46,0,920.66,398.39,920.66,889.86" transform="translate(-1657.34 -2338.6)"/><path class="cls-5" d="M10740.22,4351.59h3035.42c236.21,0,427.69-185,427.69-413.32V3257.32c0-228.28-191.48-413.32-427.69-413.32H7334c-322.17,0-583.24,252.33-583.24,563.57v531c0-616.85-104.14,156.62,132.06,156.62" transform="translate(-1657.34 -2338.6)"/><path class="cls-6" d="M6756.91,3321.85a534.68,534.68,0,0,0-131.19,18.75c-48.29,12.11-96.4,25.61-142.82,41.85a1161.71,1161.71,0,0,0-121.26,51.6,446.23,446.23,0,0,0-73.15,45c-25,18.74-48.42,39.92-63,66.28-19.81,35.73-19.87,70.91,3,105.39a38,38,0,0,1,5.88,29.68,829.68,829.68,0,0,0-12.93,181.85,88.33,88.33,0,0,0,18.74,50.61c4.93,6.68,8.49,17.11,5.81,24a500.57,500.57,0,0,1-69.16,125.82,306.86,306.86,0,0,0-26.05,33.93c-8.49,15-3.81,24.42,11.12,35.73a124.54,124.54,0,0,0,76.59,23.8c18.74,0,19.62.63,16.43,16.12a311.76,311.76,0,0,1-10.06,36.24,10.31,10.31,0,0,0,4.51,13.86,8.77,8.77,0,0,0,1,.44c12.18,6.25,23.93,13.56,36.67,19.18,6.25,2.87,8.19,5,6.25,11a180.12,180.12,0,0,0-7.25,30.3c-1.12,7.06,2.62,12.49,11.5,15.24,18.74,5.75,26.48,16.8,25.8,33.73a371,371,0,0,0,2.49,60c2.75,22.67,21.12,36.67,51.92,37.48s59.1-7.18,88.21-13.37c40.48-8.68,81.22-16.74,122.7-22.3,21.49-2.94,49.23,33.48,71.15,35.67" transform="translate(-1657.34 -2338.6)"/><path class="cls-4" d="M7232.64,3883.92c0,207.91-174.37,376.52-389.58,376.52s-389.52-168.67-389.52-376.52,174.42-376.59,389.52-376.59,389.58,168.68,389.58,376.59" transform="translate(-1657.34 -2338.6)"/><path class="cls-6" d="M2918.91,3890.67q46.23-50,46.16-146.63t-60.22-137.44q-60.17-40.6-187.42-40.67H2570.62v374.84H2743.8q128.68,0,174.92-50m188.85-438.43q121.28,99.58,121.2,306.11t-124.44,302.12q-124.64,95.58-380.28,95.65H2570.69V4467.1H2313.3V3352.59h407.88q265.58,0,386.83,100" transform="translate(-1657.34 -2338.6)"/><path class="cls-6" d="M3703.25,3575a94.91,94.91,0,0,0-37.11,78.09q0,48.74,45.36,77.34T3921,3798.21q164.1,39.11,254.88,117.13t90.71,228q0,149.93-116.32,243.14t-306.12,93.27q-273.81,0-493.53-196.1L3504,4101.89q186.42,157.86,344.73,157.86,70.9,0,111.32-29.48a93.73,93.73,0,0,0,40.42-79.72,91.94,91.94,0,0,0-42.85-79.71q-42.93-29.55-169.93-59.79-201.28-46.29-294.43-120.38t-93.15-232.78q0-158.61,117.89-244.7T3812.45,3327a730.89,730.89,0,0,1,231.15,38.29,626,626,0,0,1,201.29,108.39l-130.38,181.74q-149.94-110-310.12-109.95-64.29,0-101.39,29.48" transform="translate(-1657.34 -2338.6)"/></g><rect class="cls-6" x="2831.88" y="1013.99" width="257.32" height="1114.45"/><g class="cls-3"><path class="cls-6" d="M5563.06,4247q189.66,0,310.11-145.06l165.3,164.36Q5842.12,4480,5575.74,4480t-438.81-162.43Q4964.5,4155.12,4964.57,3907t175.67-413.69q175.74-165.81,429.69-165.8,283.76,0,475.1,208.78l-160,175.36Q5762.91,3565.06,5581.55,3565q-145.24,0-248.33,91.64t-103.08,247.15q0,155.43,97.33,249.51t235.9,94.09" transform="translate(-1657.34 -2338.6)"/><path class="cls-6" d="M7204.71,3903.41q0-149-98.95-254.26c-126.21-134.37-337.45-141-471.82-14.78q-7.62,7.15-14.78,14.78-99,105.27-99,254.26t99,253.51a322,322,0,0,0,243.33,104.46q144.32,0,243.27-104.46t98.95-253.51m87.46,409.76q-174.91,165-430.49,165.05t-430.57-165.05q-174.91-165-174.92-410.57t174.92-410.51q174.93-165,430.57-165t430.49,165q174.93,165.06,174.93,410.51t-174.93,410.57" transform="translate(-1657.34 -2338.6)"/></g><polygon class="cls-6" points="6027.42 2128.44 6027.42 1013.99 6284.74 1013.99 6284.74 1906.85 6776.34 1906.85 6776.34 2128.44 6027.42 2128.44"/><rect class="cls-6" x="6964.38" y="1013.99" width="257.32" height="1114.45"/><polygon class="cls-6" points="8312.04 1013.99 8569.36 1013.99 8569.36 2128.44 8312.04 2128.44 7762.72 1430.12 7762.72 2128.44 7505.39 2128.44 7505.39 1013.99 7746.22 1013.99 8312.04 1731.49 8312.04 1013.99"/><g class="cls-3"><path class="cls-6" d="M11340.48,3388.76v220.89h-572.3V3838.5h514.7v211.36h-514.7v230.41h590.35v208.24l-602.31,11.15c-135.07,0-244.48-105.86-244.48-236.64V3704.11c0-174.36,146.15-315.6,326.57-315.6Z" transform="translate(-1657.34 -2338.6)"/></g></svg>